<?xml version="1.0" standalone="no"?>
<!DOCTYPE svg PUBLIC "-//W3C//DTD SVG 20010904//EN"
 "http://www.w3.org/TR/2001/REC-SVG-20010904/DTD/svg10.dtd">
<svg version="1.0" xmlns="http://www.w3.org/2000/svg"
 width="452.000000pt" height="452.000000pt" viewBox="0 0 452.000000 452.000000"
 preserveAspectRatio="xMidYMid meet">

<g transform="translate(0.000000,452.000000) scale(0.100000,-0.100000)"
fill="#000000" stroke="none">
<path d="M2456 4234 c-14 -13 -16 -59 -16 -348 0 -349 1 -356 45 -356 44 0 45
7 45 356 0 289 -2 335 -16 348 -8 9 -22 16 -29 16 -7 0 -21 -7 -29 -16z"/>
<path d="M1552 4098 c-9 -9 -12 -104 -12 -364 0 -194 3 -359 6 -368 9 -23 61
-21 74 3 6 13 10 145 10 361 0 216 -4 348 -10 361 -12 21 -50 25 -68 7z"/>
<path d="M2900 4001 c-5 -11 -10 -62 -10 -114 0 -78 3 -99 19 -118 16 -21 22
-22 45 -11 26 11 26 12 26 125 0 75 -4 117 -12 125 -18 18 -56 14 -68 -7z"/>
<path d="M2006 3964 c-19 -19 -22 -134 -4 -152 18 -18 56 -14 68 7 18 34 12
126 -8 144 -23 21 -36 21 -56 1z"/>
<path d="M2002 3648 c-9 -9 -12 -75 -12 -234 0 -218 0 -223 22 -238 19 -13 25
-14 43 -2 19 13 20 24 23 230 1 138 -1 224 -8 236 -12 22 -50 26 -68 8z"/>
<path d="M2901 3591 c-7 -12 -11 -92 -11 -203 0 -205 5 -222 55 -216 l30 3 0
215 0 215 -32 3 c-23 2 -34 -2 -42 -17z"/>
<path d="M2440 3273 c-83 -70 -172 -237 -205 -385 l-17 -76 -82 53 c-45 30
-118 67 -162 82 -73 26 -90 28 -234 28 -135 0 -165 -3 -230 -23 -295 -93 -484
-323 -515 -629 -15 -155 32 -440 104 -624 101 -258 305 -523 506 -658 89 -59
150 -80 260 -88 126 -9 229 24 343 109 l53 39 37 -29 c145 -115 318 -149 489
-97 76 23 191 104 296 210 207 208 346 462 408 746 25 114 41 307 34 389 -29
305 -218 538 -510 630 -95 30 -301 39 -396 17 -96 -23 -169 -53 -238 -97 -34
-22 -63 -40 -65 -40 -3 0 2 28 10 63 21 91 84 213 148 284 59 64 69 95 37 113
-28 15 -36 13 -71 -17z"/>
<path d="M1002 1150 c-123 -38 -226 -71 -229 -74 -20 -19 32 -43 267 -121
l261 -87 -21 -35 c-22 -37 -21 -63 3 -63 15 0 67 88 67 113 0 11 -64 37 -235
94 -129 43 -235 80 -235 84 0 3 35 16 78 28 243 70 302 91 302 111 0 13 -6 20
-17 19 -10 -1 -119 -32 -241 -69z"/>
<path d="M3260 1200 c0 -20 15 -25 288 -106 50 -15 92 -30 92 -33 0 -4 -106
-41 -235 -84 -182 -61 -235 -82 -235 -95 0 -9 21 -53 46 -97 25 -44 59 -104
76 -134 l31 -54 -39 6 c-21 4 -56 10 -76 13 -34 6 -38 4 -38 -15 0 -11 1 -21
3 -21 1 0 45 -9 97 -19 93 -18 120 -18 120 0 0 6 -37 74 -81 152 -45 78 -83
145 -85 149 -2 3 113 45 257 93 234 78 286 102 266 121 -6 6 -462 144 -477
144 -5 0 -10 -9 -10 -20z"/>
<path d="M1197 688 c-15 -27 -16 -33 -4 -45 12 -13 17 -11 36 13 11 14 21 35
21 45 0 30 -33 22 -53 -13z"/>
<path d="M1485 651 c-280 -53 -350 -70 -353 -83 -2 -9 1 -19 6 -22 4 -3 171
26 370 63 l363 67 192 -158 c105 -87 194 -158 197 -158 14 0 405 330 405 342
0 35 -47 7 -213 -132 -100 -82 -186 -150 -191 -150 -5 0 -91 68 -191 150 -138
113 -189 150 -209 149 -14 -1 -183 -31 -376 -68z"/>
<path d="M2763 685 c-3 -9 -2 -20 3 -25 13 -11 192 -42 204 -35 9 6 14 35 6
35 -4 0 -143 27 -184 36 -15 3 -25 -1 -29 -11z"/>
<path d="M3034 635 c-8 -21 2 -32 36 -37 32 -5 61 16 44 31 -18 17 -75 21 -80
6z"/>
</g>
</svg>
